<?xml version="1.0" encoding="UTF-8" standalone="no"?>
<svg
   xmlns:dc="http://purl.org/dc/elements/1.1/"
   xmlns:cc="http://creativecommons.org/ns#"
   xmlns:rdf="http://www.w3.org/1999/02/22-rdf-syntax-ns#"
   xmlns:svg="http://www.w3.org/2000/svg"
   xmlns="http://www.w3.org/2000/svg"
   xmlns:sodipodi="http://sodipodi.sourceforge.net/DTD/sodipodi-0.dtd"
   xmlns:inkscape="http://www.inkscape.org/namespaces/inkscape"
   version="1.1"
   x="0px"
   y="0px"
   width="30"
   height="30"
   viewBox="0 0 30 30"
   enable-background="new 0 0 100 100"
   xml:space="preserve"
   id="svg2997"
   inkscape:version="0.48.4 r9939"
   sodipodi:docname="noun_project_14365.svg"
   inkscape:export-filename="C:\source\SwythanTivoProject\Dev\Src\TivoAhoy.Phone\Images\thumbsup.png"
   inkscape:export-xdpi="90"
   inkscape:export-ydpi="90"><metadata
   id="metadata3007"><rdf:RDF><cc:Work
       rdf:about=""><dc:format>image/svg+xml</dc:format><dc:type
         rdf:resource="http://purl.org/dc/dcmitype/StillImage" /><dc:title></dc:title></cc:Work></rdf:RDF></metadata><defs
   id="defs3005" /><sodipodi:namedview
   pagecolor="#000000"
   bordercolor="#666666"
   borderopacity="1"
   objecttolerance="10"
   gridtolerance="10"
   guidetolerance="10"
   inkscape:pageopacity="0"
   inkscape:pageshadow="2"
   inkscape:window-width="924"
   inkscape:window-height="612"
   id="namedview3003"
   showgrid="false"
   inkscape:zoom="2.36"
   inkscape:cx="-16.101695"
   inkscape:cy="50"
   inkscape:window-x="227"
   inkscape:window-y="43"
   inkscape:window-maximized="0"
   inkscape:current-layer="svg2997" />
<g
   id="Captions"
   transform="translate(0,-70)">
</g>
<g
   id="Your_Icon"
   style="fill:#ffffff;fill-opacity:1"
   transform="matrix(0.29810618,0,0,0.29810618,0.29334268,0.33392121)">
	<path
   d="M 81.776,48.962 C 81.632,48.88 81.483,48.81 81.327,48.753 81.258,48.727 74.343,46.118 70.3,40.571 67.938,37.33 64.427,34.497 60.709,31.498 56.591,28.175 52.332,24.739 49.48,20.607 47.712,18.049 46.454,15.607 45.342,13.451 43.282,9.453 41.503,6 37.732,6 c -1.161,0 -2.308,0.361 -3.507,1.105 -2.508,1.555 -4.133,4.244 -4.575,7.571 -0.696,5.228 1.6,11.255 6.144,16.123 2.959,3.17 3.438,5.646 2.948,6.802 -0.51,1.207 -2.345,1.957 -4.907,2.007 -0.894,0.018 -1.799,0.024 -2.7,0.031 -6.439,0.049 -12.521,0.094 -15.917,3.63 -1.551,1.616 -2.295,3.715 -2.211,6.238 0.109,3.292 1.131,5.511 2.56,6.896 -0.546,0.865 -0.98,1.873 -1.193,3.037 -0.516,2.828 0.424,5.742 2.795,8.688 -0.722,1.229 -1.319,2.855 -1.18,4.775 0.188,2.574 1.619,4.891 4.262,6.9 0.042,1.883 0.476,4.744 2.369,7.316 1.969,2.676 4.956,4.322 8.878,4.895 1.739,0.256 3.571,0.381 5.603,0.381 4.923,0 10.096,-0.762 14.659,-1.434 3.878,-0.57 7.54,-1.109 10.442,-1.109 h 0.679 c 7.508,0 12.04,0 14.19,-6.324 0.22,-0.645 0.831,-2.025 1.539,-3.621 4.337,-9.786 11.598,-26.165 3.166,-30.945 z m -3.152,13.702 c -1.365,5.107 -3.938,10.91 -5.64,14.748 -0.831,1.875 -1.431,3.23 -1.739,4.135 -0.648,1.91 -0.732,2.152 -8.365,2.152 h -0.679 c -3.354,0 -7.231,0.572 -11.338,1.178 -4.567,0.67 -9.29,1.365 -13.764,1.365 -1.729,0 -3.271,-0.102 -4.711,-0.314 -4.005,-0.584 -5.399,-2.744 -5.835,-4.615 h 3.389 c 1.698,0 3.076,-1.377 3.076,-3.078 0,-1.697 -1.378,-3.076 -3.076,-3.076 h -5.616 c -1.339,-0.941 -2.133,-1.9 -2.199,-2.684 -0.043,-0.492 0.194,-1.004 0.462,-1.41 H 35.26 c 1.699,0 3.077,-1.377 3.077,-3.076 0,-1.699 -1.378,-3.078 -3.077,-3.078 H 22.513 c -1.542,-1.705 -2.283,-3.225 -2.089,-4.346 0.188,-1.094 1.309,-1.986 2.038,-2.434 H 38.19 c 1.699,0 3.077,-1.377 3.077,-3.076 0,-1.699 -1.378,-3.076 -3.077,-3.076 H 22.442 c -0.188,-0.039 -0.38,-0.066 -0.575,-0.066 -0.343,0 -0.693,0.063 -1.039,0.191 -0.002,0 -0.182,0.045 -0.419,0.045 -0.287,0 -1.158,0 -1.253,-2.844 -0.035,-1.072 0.249,-1.511 0.5,-1.772 1.598,-1.664 7.102,-1.705 11.524,-1.738 0.927,-0.007 1.856,-0.014 2.774,-0.031 5.138,-0.102 8.948,-2.202 10.455,-5.763 1.662,-3.93 0.161,-8.813 -4.118,-13.398 -3.886,-4.164 -4.895,-8.47 -4.543,-11.112 0.113,-0.85 0.488,-2.39 1.72,-3.154 0.035,-0.022 0.068,-0.042 0.099,-0.059 0.603,0.69 1.537,2.502 2.306,3.995 1.137,2.205 2.552,4.951 4.543,7.834 3.36,4.864 8.179,8.752 12.429,12.182 3.393,2.738 6.599,5.323 8.482,7.909 4.605,6.32 11.844,9.516 13.52,10.193 0.647,0.547 1.239,2.802 -0.223,8.273 z"
   id="path3001"
   style="fill:#ffffff;fill-opacity:1"
   inkscape:connector-curvature="0" />
</g>
</svg>